<svg width="260" height="69" viewBox="0 0 260 69" fill="none" xmlns="http://www.w3.org/2000/svg">
<path opacity="0.4" d="M15.8658 8.5H45.8658L60.8658 34.5L45.8658 60.5H15.8658L0.865845 34.5L15.8658 8.5Z" stroke="url(#paint0_linear_27_34)" stroke-width="1.5"/>
<path opacity="0.15" d="M15.8658 16.5H45.8658L30.8658 43.5L15.8658 16.5Z" fill="url(#paint1_linear_27_34)"/>
<g filter="url(#filter0_f_27_34)">
<path d="M14.8658 22C14.8658 20.067 13.2988 18.5 11.3658 18.5C9.43285 18.5 7.86584 20.067 7.86584 22V47C7.86584 48.933 9.43285 50.5 11.3658 50.5C13.2988 50.5 14.8658 48.933 14.8658 47V22Z" fill="url(#paint2_linear_27_34)"/>
</g>
<g filter="url(#filter1_f_27_34)">
<path d="M48.8658 22C48.8658 20.067 47.2988 18.5 45.3658 18.5C43.4328 18.5 41.8658 20.067 41.8658 22V47C41.8658 48.933 43.4328 50.5 45.3658 50.5C47.2988 50.5 48.8658 48.933 48.8658 47V22Z" fill="url(#paint3_linear_27_34)"/>
</g>
<g filter="url(#filter2_f_27_34)">
<path d="M14.8658 18.5L41.8658 50.5" stroke="url(#paint4_linear_27_34)" stroke-width="5" stroke-linecap="round"/>
</g>
<g filter="url(#filter3_f_27_34)">
<path d="M11.3658 21.5C13.575 21.5 15.3658 19.7091 15.3658 17.5C15.3658 15.2909 13.575 13.5 11.3658 13.5C9.15671 13.5 7.36584 15.2909 7.36584 17.5C7.36584 19.7091 9.15671 21.5 11.3658 21.5Z" fill="#00F5C4"/>
</g>
<g filter="url(#filter4_f_27_34)">
<path d="M45.3658 55.5C47.575 55.5 49.3658 53.7091 49.3658 51.5C49.3658 49.2909 47.575 47.5 45.3658 47.5C43.1567 47.5 41.3658 49.2909 41.3658 51.5C41.3658 53.7091 43.1567 55.5 45.3658 55.5Z" fill="#0066FF"/>
</g>
<path opacity="0.6" d="M30.8658 5C32.2466 5 33.3658 3.88071 33.3658 2.5C33.3658 1.11929 32.2466 0 30.8658 0C29.4851 0 28.3658 1.11929 28.3658 2.5C28.3658 3.88071 29.4851 5 30.8658 5Z" fill="#00F5C4"/>
<path opacity="0.6" d="M30.8658 69C32.2466 69 33.3658 67.8807 33.3658 66.5C33.3658 65.1193 32.2466 64 30.8658 64C29.4851 64 28.3658 65.1193 28.3658 66.5C28.3658 67.8807 29.4851 69 30.8658 69Z" fill="#0066FF"/>
<path d="M100.384 20.3636V48H95.3367L83.3133 30.6058H83.1109V48H77.2678V20.3636H82.3957L94.3247 37.7443H94.5676V20.3636H100.384ZM105.211 48V20.3636H123.833V25.1811H111.054V31.7663H122.875V36.5838H111.054V43.1825H123.887V48H105.211ZM133.957 20.3636L139.531 29.7827H139.747L145.347 20.3636H151.945L143.511 34.1818L152.134 48H145.414L139.747 38.5675H139.531L133.863 48H127.17L135.82 34.1818L127.332 20.3636H133.957ZM160.636 20.3636L167.315 41.3608H167.572L174.265 20.3636H180.742L171.215 48H163.685L154.145 20.3636H160.636ZM185.158 48H178.897L188.437 20.3636H195.967L205.494 48H199.233L192.31 26.679H192.094L185.158 48ZM184.767 37.1371H199.557V41.6982H184.767V37.1371ZM208.821 48V20.3636H219.724C221.811 20.3636 223.592 20.737 225.068 21.4837C226.552 22.2214 227.681 23.2694 228.455 24.6278C229.237 25.9773 229.629 27.5651 229.629 29.3913C229.629 31.2266 229.233 32.8054 228.441 34.1278C227.65 35.4413 226.503 36.4489 225 37.1506C223.507 37.8523 221.699 38.2031 219.576 38.2031H212.275V33.5071H218.631C219.746 33.5071 220.673 33.3542 221.411 33.0483C222.148 32.7424 222.697 32.2836 223.057 31.6719C223.426 31.0601 223.61 30.3 223.61 29.3913C223.61 28.4737 223.426 27.7 223.057 27.0703C222.697 26.4406 222.144 25.9638 221.397 25.6399C220.66 25.3071 219.728 25.1406 218.604 25.1406H214.664V48H208.821ZM223.745 35.4233L230.614 48H224.164L217.443 35.4233H223.745ZM238.522 48H232.26L241.801 20.3636H249.331L258.858 48H252.596L245.674 26.679H245.458L238.522 48ZM238.13 37.1371H252.92V41.6982H238.13V37.1371Z" fill="white"/>
<path d="M76.6272 51.7273V59H75.7465V51.7273H76.6272ZM84.1601 51.7273V59H83.3078L79.3447 53.2898H79.2737V59H78.393V51.7273H79.2453L83.2226 57.4517H83.2936V51.7273H84.1601ZM85.5246 52.5085V51.7273H90.9791V52.5085H88.6922V59H87.8115V52.5085H85.5246ZM92.3383 59V51.7273H96.7275V52.5085H93.219V54.9659H96.5003V55.7472H93.219V58.2188H96.7843V59H92.3383ZM98.3149 59V51.7273H99.1956V58.2188H102.576V59H98.3149ZM103.94 59V51.7273H104.821V58.2188H108.201V59H103.94ZM110.446 51.7273V59H109.565V51.7273H110.446ZM117.183 54C117.105 53.7609 117.002 53.5466 116.874 53.3572C116.749 53.1655 116.598 53.0021 116.423 52.8672C116.25 52.7322 116.054 52.6293 115.834 52.5582C115.613 52.4872 115.372 52.4517 115.109 52.4517C114.678 52.4517 114.286 52.563 113.934 52.7855C113.581 53.008 113.3 53.3359 113.092 53.7692C112.884 54.2024 112.78 54.7339 112.78 55.3636C112.78 55.9934 112.885 56.5249 113.096 56.9581C113.306 57.3913 113.592 57.7192 113.951 57.9418C114.311 58.1643 114.716 58.2756 115.166 58.2756C115.583 58.2756 115.95 58.1868 116.267 58.0092C116.586 57.8293 116.835 57.576 117.013 57.2493C117.192 56.9202 117.282 56.5331 117.282 56.0881L117.552 56.1449H115.365V55.3636H118.135V56.1449C118.135 56.7438 118.007 57.2647 117.751 57.7074C117.498 58.1501 117.147 58.4934 116.7 58.7372C116.255 58.9787 115.744 59.0994 115.166 59.0994C114.522 59.0994 113.956 58.9479 113.468 58.6449C112.983 58.3419 112.604 57.911 112.332 57.3523C112.062 56.7936 111.927 56.1307 111.927 55.3636C111.927 54.7884 112.004 54.2711 112.158 53.8118C112.314 53.3501 112.535 52.9571 112.819 52.6328C113.103 52.3085 113.439 52.0599 113.827 51.8871C114.215 51.7143 114.643 51.6278 115.109 51.6278C115.493 51.6278 115.85 51.6858 116.182 51.8018C116.515 51.9155 116.812 52.0777 117.073 52.2884C117.336 52.4967 117.555 52.7464 117.73 53.0376C117.905 53.3265 118.026 53.6473 118.092 54H117.183ZM119.643 59V51.7273H124.032V52.5085H120.524V54.9659H123.805V55.7472H120.524V58.2188H124.089V59H119.643ZM131.387 51.7273V59H130.534L126.571 53.2898H126.5V59H125.62V51.7273H126.472L130.449 57.4517H130.52V51.7273H131.387ZM139.001 54H138.12C138.068 53.7467 137.977 53.5241 137.847 53.3324C137.719 53.1406 137.563 52.9796 137.378 52.8494C137.196 52.7169 136.994 52.6174 136.771 52.5511C136.548 52.4848 136.316 52.4517 136.075 52.4517C135.635 52.4517 135.236 52.563 134.878 52.7855C134.523 53.008 134.24 53.3359 134.03 53.7692C133.821 54.2024 133.717 54.7339 133.717 55.3636C133.717 55.9934 133.821 56.5249 134.03 56.9581C134.24 57.3913 134.523 57.7192 134.878 57.9418C135.236 58.1643 135.635 58.2756 136.075 58.2756C136.316 58.2756 136.548 58.2424 136.771 58.1761C136.994 58.1098 137.196 58.0116 137.378 57.8814C137.563 57.7488 137.719 57.5866 137.847 57.3949C137.977 57.2008 138.068 56.9782 138.12 56.7273H139.001C138.935 57.099 138.814 57.4316 138.639 57.7251C138.464 58.0187 138.246 58.2685 137.986 58.4744C137.725 58.678 137.433 58.8331 137.108 58.9396C136.786 59.0462 136.442 59.0994 136.075 59.0994C135.455 59.0994 134.903 58.9479 134.42 58.6449C133.937 58.3419 133.557 57.911 133.28 57.3523C133.003 56.7936 132.865 56.1307 132.865 55.3636C132.865 54.5966 133.003 53.9337 133.28 53.375C133.557 52.8163 133.937 52.3854 134.42 52.0824C134.903 51.7794 135.455 51.6278 136.075 51.6278C136.442 51.6278 136.786 51.6811 137.108 51.7876C137.433 51.8942 137.725 52.0504 137.986 52.2564C138.246 52.46 138.464 52.7086 138.639 53.0021C138.814 53.2933 138.935 53.6259 139.001 54ZM140.424 59V51.7273H144.813V52.5085H141.305V54.9659H144.586V55.7472H141.305V58.2188H144.87V59H140.424ZM149.213 59V51.7273H153.603V52.5085H150.094V54.9659H153.375V55.7472H150.094V58.2188H153.659V59H149.213ZM160.957 51.7273V59H160.105L156.142 53.2898H156.071V59H155.19V51.7273H156.042L160.019 57.4517H160.09V51.7273H160.957ZM167.691 54C167.613 53.7609 167.51 53.5466 167.382 53.3572C167.256 53.1655 167.106 53.0021 166.931 52.8672C166.758 52.7322 166.562 52.6293 166.341 52.5582C166.121 52.4872 165.88 52.4517 165.617 52.4517C165.186 52.4517 164.794 52.563 164.441 52.7855C164.089 53.008 163.808 53.3359 163.6 53.7692C163.392 54.2024 163.287 54.7339 163.287 55.3636C163.287 55.9934 163.393 56.5249 163.603 56.9581C163.814 57.3913 164.099 57.7192 164.459 57.9418C164.819 58.1643 165.224 58.2756 165.674 58.2756C166.09 58.2756 166.457 58.1868 166.775 58.0092C167.094 57.8293 167.343 57.576 167.52 57.2493C167.7 56.9202 167.79 56.5331 167.79 56.0881L168.06 56.1449H165.873V55.3636H168.642V56.1449C168.642 56.7438 168.515 57.2647 168.259 57.7074C168.006 58.1501 167.655 58.4934 167.208 58.7372C166.763 58.9787 166.251 59.0994 165.674 59.0994C165.03 59.0994 164.464 58.9479 163.976 58.6449C163.491 58.3419 163.112 57.911 162.84 57.3523C162.57 56.7936 162.435 56.1307 162.435 55.3636C162.435 54.7884 162.512 54.2711 162.666 53.8118C162.822 53.3501 163.042 52.9571 163.326 52.6328C163.611 52.3085 163.947 52.0599 164.335 51.8871C164.723 51.7143 165.151 51.6278 165.617 51.6278C166 51.6278 166.358 51.6858 166.689 51.8018C167.023 51.9155 167.32 52.0777 167.581 52.2884C167.843 52.4967 168.062 52.7464 168.238 53.0376C168.413 53.3265 168.534 53.6473 168.6 54H167.691ZM171.032 51.7273V59H170.151V51.7273H171.032ZM178.564 51.7273V59H177.712L173.749 53.2898H173.678V59H172.797V51.7273H173.65L177.627 57.4517H177.698V51.7273H178.564ZM180.327 59V51.7273H184.716V52.5085H181.207V54.9659H184.489V55.7472H181.207V58.2188H184.773V59H180.327ZM186.303 59V51.7273H190.692V52.5085H187.184V54.9659H190.465V55.7472H187.184V58.2188H190.749V59H186.303ZM192.28 59V51.7273H194.737C195.305 51.7273 195.772 51.8243 196.136 52.0185C196.501 52.2102 196.771 52.4742 196.946 52.8104C197.121 53.1465 197.209 53.5289 197.209 53.9574C197.209 54.3859 197.121 54.7659 196.946 55.0973C196.771 55.4287 196.502 55.6892 196.14 55.8786C195.778 56.0656 195.315 56.1591 194.751 56.1591H192.763V55.3636H194.723C195.111 55.3636 195.424 55.3068 195.66 55.1932C195.9 55.0795 196.072 54.9186 196.179 54.7102C196.288 54.4995 196.342 54.2486 196.342 53.9574C196.342 53.6662 196.288 53.4117 196.179 53.1939C196.07 52.9761 195.896 52.808 195.657 52.6896C195.418 52.5689 195.102 52.5085 194.709 52.5085H193.16V59H192.28ZM195.703 55.733L197.493 59H196.47L194.709 55.733H195.703ZM198.676 59V51.7273H203.065V52.5085H199.557V54.9659H202.838V55.7472H199.557V58.2188H203.122V59H198.676ZM206.897 59H204.653V51.7273H206.997C207.702 51.7273 208.306 51.8729 208.808 52.1641C209.31 52.4529 209.694 52.8684 209.962 53.4105C210.229 53.9503 210.363 54.5966 210.363 55.3494C210.363 56.107 210.228 56.7592 209.958 57.3061C209.688 57.8506 209.295 58.2696 208.779 58.5632C208.263 58.8544 207.636 59 206.897 59ZM205.533 58.2188H206.84C207.442 58.2188 207.94 58.1027 208.335 57.8707C208.731 57.6387 209.025 57.3085 209.22 56.88C209.414 56.4515 209.511 55.9413 209.511 55.3494C209.511 54.7623 209.415 54.2569 209.223 53.8331C209.031 53.407 208.745 53.0803 208.364 52.853C207.983 52.6233 207.508 52.5085 206.94 52.5085H205.533V58.2188Z" fill="#4A7FA5"/>
<defs>
<filter id="filter0_f_27_34" x="2.86584" y="13.5" width="17" height="42" filterUnits="userSpaceOnUse" color-interpolation-filters="sRGB">
<feFlood flood-opacity="0" result="BackgroundImageFix"/>
<feBlend mode="normal" in="SourceGraphic" in2="BackgroundImageFix" result="shape"/>
<feGaussianBlur stdDeviation="2.5" result="effect1_foregroundBlur_27_34"/>
</filter>
<filter id="filter1_f_27_34" x="36.8658" y="13.5" width="17" height="42" filterUnits="userSpaceOnUse" color-interpolation-filters="sRGB">
<feFlood flood-opacity="0" result="BackgroundImageFix"/>
<feBlend mode="normal" in="SourceGraphic" in2="BackgroundImageFix" result="shape"/>
<feGaussianBlur stdDeviation="2.5" result="effect1_foregroundBlur_27_34"/>
</filter>
<filter id="filter2_f_27_34" x="7.36584" y="10.9999" width="42" height="47.0001" filterUnits="userSpaceOnUse" color-interpolation-filters="sRGB">
<feFlood flood-opacity="0" result="BackgroundImageFix"/>
<feBlend mode="normal" in="SourceGraphic" in2="BackgroundImageFix" result="shape"/>
<feGaussianBlur stdDeviation="2.5" result="effect1_foregroundBlur_27_34"/>
</filter>
<filter id="filter3_f_27_34" x="2.36584" y="8.5" width="18" height="18" filterUnits="userSpaceOnUse" color-interpolation-filters="sRGB">
<feFlood flood-opacity="0" result="BackgroundImageFix"/>
<feBlend mode="normal" in="SourceGraphic" in2="BackgroundImageFix" result="shape"/>
<feGaussianBlur stdDeviation="2.5" result="effect1_foregroundBlur_27_34"/>
</filter>
<filter id="filter4_f_27_34" x="36.3658" y="42.5" width="18" height="18" filterUnits="userSpaceOnUse" color-interpolation-filters="sRGB">
<feFlood flood-opacity="0" result="BackgroundImageFix"/>
<feBlend mode="normal" in="SourceGraphic" in2="BackgroundImageFix" result="shape"/>
<feGaussianBlur stdDeviation="2.5" result="effect1_foregroundBlur_27_34"/>
</filter>
<linearGradient id="paint0_linear_27_34" x1="0.865845" y1="8.5" x2="5148.07" y2="5947.59" gradientUnits="userSpaceOnUse">
<stop stop-color="#00F5C4"/>
<stop offset="1" stop-color="#0066FF"/>
</linearGradient>
<linearGradient id="paint1_linear_27_34" x1="15.8658" y1="16.5" x2="2700.95" y2="2999.93" gradientUnits="userSpaceOnUse">
<stop stop-color="#00F5C4"/>
<stop offset="1" stop-color="#0066FF"/>
</linearGradient>
<linearGradient id="paint2_linear_27_34" x1="7.86584" y1="18.5" x2="1343.93" y2="310.765" gradientUnits="userSpaceOnUse">
<stop stop-color="#00F5C4"/>
<stop offset="1" stop-color="#0066FF"/>
</linearGradient>
<linearGradient id="paint3_linear_27_34" x1="41.8658" y1="18.5" x2="1377.93" y2="310.765" gradientUnits="userSpaceOnUse">
<stop stop-color="#0066FF"/>
<stop offset="1" stop-color="#00F5C4"/>
</linearGradient>
<linearGradient id="paint4_linear_27_34" x1="14.8658" y1="18.5" x2="3169.23" y2="2679.99" gradientUnits="userSpaceOnUse">
<stop stop-color="#00F5C4"/>
<stop offset="1" stop-color="#0066FF"/>
</linearGradient>
</defs>
</svg>
